<?xml version="1.0" encoding="utf-8"?>
<!-- Generator: Adobe Illustrator 18.1.1, SVG Export Plug-In . SVG Version: 6.00 Build 0)  -->
<svg version="1.1" id="Layer_1" xmlns="http://www.w3.org/2000/svg" xmlns:xlink="http://www.w3.org/1999/xlink" x="0px" y="0px"
	 viewBox="136.4 -91.4 1100.4 53.3" enable-background="new 136.4 -91.4 1100.4 53.3" xml:space="preserve">
<g>
	<path fill="#FFFFFF" d="M172.6-60.1l14,4.2c-0.9,3.9-2.4,7.2-4.4,9.8c-2,2.6-4.5,4.6-7.5,5.9s-6.8,2-11.4,2
		c-5.6,0-10.2-0.8-13.7-2.4c-3.6-1.6-6.6-4.5-9.2-8.6c-2.6-4.1-3.9-9.3-3.9-15.7c0-8.5,2.3-15.1,6.8-19.7s11-6.9,19.2-6.9
		c6.5,0,11.6,1.3,15.3,3.9c3.7,2.6,6.5,6.7,8.3,12.1L172-72.3c-0.5-1.6-1-2.7-1.5-3.4c-0.9-1.2-2-2.2-3.3-2.8c-1.3-0.7-2.7-1-4.3-1
		c-3.6,0-6.4,1.5-8.3,4.4c-1.5,2.2-2.2,5.5-2.2,10.1c0,5.7,0.9,9.6,2.6,11.7c1.7,2.1,4.2,3.2,7.3,3.2c3,0,5.3-0.9,6.9-2.6
		C170.8-54.4,171.9-56.8,172.6-60.1z"/>
	<path fill="#FFFFFF" d="M192.3-64.7c0-8.4,2.3-15,7-19.7c4.7-4.7,11.2-7,19.6-7c8.6,0,15.2,2.3,19.8,6.9s7,11.1,7,19.4
		c0,6-1,11-3,14.8c-2,3.9-5,6.9-8.8,9s-8.6,3.2-14.3,3.2c-5.8,0-10.6-0.9-14.4-2.8c-3.8-1.9-6.9-4.8-9.3-8.8
		C193.5-53.7,192.3-58.7,192.3-64.7z M208.2-64.7c0,5.2,1,8.9,2.9,11.2c1.9,2.3,4.6,3.4,7.9,3.4c3.4,0,6.1-1.1,7.9-3.3
		c1.9-2.2,2.8-6.2,2.8-12c0-4.9-1-8.4-2.9-10.6c-2-2.2-4.6-3.4-8-3.4c-3.2,0-5.8,1.1-7.7,3.4C209.2-73.7,208.2-69.9,208.2-64.7z"/>
	<path fill="#FFFFFF" d="M254.4-90.5h14.9L288.6-62v-28.5h15V-39h-15l-19.3-28.3V-39h-15V-90.5z"/>
	<path fill="#FFFFFF" d="M311.5-56.1l15.2-0.9c0.3,2.5,1,4.3,2,5.6c1.6,2.1,4,3.1,7,3.1c2.3,0,4-0.5,5.3-1.6
		c1.2-1.1,1.8-2.3,1.8-3.7c0-1.3-0.6-2.5-1.8-3.6c-1.2-1.1-3.9-2.1-8.2-3c-7-1.6-12-3.7-14.9-6.3c-3-2.6-4.5-5.9-4.5-9.9
		c0-2.6,0.8-5.2,2.3-7.5c1.5-2.4,3.8-4.2,6.9-5.6c3.1-1.3,7.3-2,12.7-2c6.6,0,11.6,1.2,15.1,3.7c3.5,2.4,5.5,6.3,6.2,11.7l-15,0.9
		c-0.4-2.3-1.2-4-2.5-5.1c-1.3-1.1-3-1.6-5.3-1.6c-1.9,0-3.2,0.4-4.2,1.2c-0.9,0.8-1.4,1.7-1.4,2.9c0,0.8,0.4,1.6,1.2,2.2
		c0.8,0.7,2.5,1.3,5.3,1.9c7,1.5,11.9,3,15,4.6c3,1.5,5.2,3.4,6.6,5.7c1.4,2.3,2.1,4.8,2.1,7.6c0,3.3-0.9,6.4-2.7,9.1
		c-1.8,2.8-4.4,4.9-7.7,6.3c-3.3,1.4-7.4,2.2-12.4,2.2c-8.8,0-14.8-1.7-18.2-5.1S311.9-50.8,311.5-56.1z"/>
	<path fill="#FFFFFF" d="M366.2-90.5h42.7v11h-26.7v8.2h24.8v10.5h-24.8v10.2h27.5V-39h-43.5V-90.5z"/>
	<path fill="#FFFFFF" d="M452.5-60.1l14,4.2c-0.9,3.9-2.4,7.2-4.4,9.8c-2,2.6-4.5,4.6-7.5,5.9s-6.8,2-11.4,2
		c-5.6,0-10.2-0.8-13.7-2.4c-3.6-1.6-6.6-4.5-9.2-8.6c-2.6-4.1-3.9-9.3-3.9-15.7c0-8.5,2.3-15.1,6.8-19.7s11-6.9,19.2-6.9
		c6.5,0,11.6,1.3,15.3,3.9c3.7,2.6,6.5,6.7,8.3,12.1l-14.1,3.1c-0.5-1.6-1-2.7-1.5-3.4c-0.9-1.2-2-2.2-3.3-2.8c-1.3-0.7-2.7-1-4.3-1
		c-3.6,0-6.4,1.5-8.3,4.4c-1.5,2.2-2.2,5.5-2.2,10.1c0,5.7,0.9,9.6,2.6,11.7c1.7,2.1,4.2,3.2,7.3,3.2c3,0,5.3-0.9,6.9-2.6
		C450.7-54.4,451.8-56.8,452.5-60.1z"/>
	<path fill="#FFFFFF" d="M470.6-90.5H519v12.7h-16.2V-39h-15.9v-38.8h-16.2V-90.5z"/>
	<path fill="#FFFFFF" d="M526.2-90.5h42.7v11h-26.7v8.2h24.8v10.5h-24.8v10.2h27.5V-39h-43.5V-90.5z"/>
	<path fill="#FFFFFF" d="M574.6-90.5H623v12.7h-16.2V-39h-15.9v-38.8h-16.2V-90.5z"/>
	<path fill="#FFFFFF" d="M663.8-90.5h15.9v30.7c0,3-0.5,5.9-1.4,8.6c-0.9,2.7-2.4,5.1-4.5,7.1s-4.2,3.4-6.4,4.3
		c-3.1,1.1-6.8,1.7-11.1,1.7c-2.5,0-5.2-0.2-8.2-0.5c-3-0.4-5.4-1-7.4-2.1c-2-1-3.8-2.5-5.5-4.4s-2.8-3.9-3.4-5.9
		c-1-3.3-1.5-6.2-1.5-8.7v-30.7h15.9v31.4c0,2.8,0.8,5,2.3,6.6c1.6,1.6,3.7,2.4,6.5,2.4c2.7,0,4.9-0.8,6.5-2.3
		c1.6-1.6,2.3-3.8,2.3-6.6V-90.5z"/>
	<path fill="#FFFFFF" d="M690.4-39v-51.5h26.5c4.9,0,8.7,0.4,11.3,1.3s4.7,2.4,6.3,4.7s2.4,5.1,2.4,8.3c0,2.9-0.6,5.3-1.8,7.4
		s-2.9,3.8-5,5c-1.4,0.8-3.2,1.5-5.6,2c1.9,0.6,3.3,1.3,4.1,1.9c0.6,0.4,1.4,1.3,2.5,2.7s1.9,2.5,2.2,3.2l7.7,14.9h-18l-8.5-15.8
		c-1.1-2-2-3.4-2.9-4c-1.1-0.8-2.4-1.2-3.9-1.2h-1.4V-39H690.4z M706.4-69.7h6.7c0.7,0,2.1-0.2,4.2-0.7c1.1-0.2,1.9-0.8,2.6-1.6
		c0.7-0.9,1-1.9,1-3c0-1.7-0.5-2.9-1.6-3.8c-1.1-0.9-3-1.3-5.9-1.3h-7V-69.7z"/>
	<path fill="#FFFFFF" d="M801.9-47.5h-18.1l-2.5,8.5H765l19.4-51.5h17.4L821.1-39h-16.7L801.9-47.5z M798.6-58.7l-5.7-18.5
		l-5.6,18.5H798.6z"/>
	<path fill="#FFFFFF" d="M826.4-90.5h23.7c4.7,0,8.4,0.6,11.3,1.9s5.2,3.1,7.1,5.4c1.9,2.4,3.2,5.1,4.1,8.3c0.8,3.1,1.3,6.5,1.3,10
		c0,5.5-0.6,9.8-1.9,12.8c-1.3,3-3,5.6-5.2,7.6c-2.2,2.1-4.6,3.4-7.2,4.1c-3.5,0.9-6.7,1.4-9.5,1.4h-23.7V-90.5z M842.3-78.9v28.2
		h3.9c3.3,0,5.7-0.4,7.1-1.1s2.5-2,3.3-3.9c0.8-1.8,1.2-4.8,1.2-8.9c0-5.5-0.9-9.2-2.7-11.2c-1.8-2-4.7-3-8.9-3H842.3z"/>
	<path fill="#FFFFFF" d="M882.8-90.5h16V-39h-16V-90.5z"/>
	<path fill="#FFFFFF" d="M910.2-90.5h26.5c5.8,0,10.1,1.4,13,4.1s4.3,6.6,4.3,11.7c0,5.2-1.6,9.3-4.7,12.2
		c-3.1,2.9-7.9,4.4-14.3,4.4h-8.7V-39h-16V-90.5z M926.2-68.6h3.9c3.1,0,5.2-0.5,6.5-1.6c1.2-1.1,1.9-2.4,1.9-4.1
		c0-1.6-0.5-3-1.6-4.1s-3.1-1.7-6.1-1.7h-4.5V-68.6z"/>
	<path fill="#FFFFFF" d="M962.9-90.5h16V-39h-16V-90.5z"/>
	<path fill="#FFFFFF" d="M987.5-56.1l15.2-0.9c0.3,2.5,1,4.3,2,5.6c1.6,2.1,4,3.1,7,3.1c2.3,0,4-0.5,5.3-1.6
		c1.2-1.1,1.8-2.3,1.8-3.7c0-1.3-0.6-2.5-1.8-3.6s-3.9-2.1-8.2-3c-7-1.6-12-3.7-14.9-6.3c-3-2.6-4.5-5.9-4.5-9.9
		c0-2.6,0.8-5.2,2.3-7.5s3.8-4.2,6.9-5.6c3.1-1.3,7.3-2,12.7-2c6.6,0,11.6,1.2,15.1,3.7c3.5,2.4,5.5,6.3,6.2,11.7l-15,0.9
		c-0.4-2.3-1.2-4-2.5-5.1s-3-1.6-5.3-1.6c-1.9,0-3.2,0.4-4.2,1.2c-0.9,0.8-1.4,1.7-1.4,2.9c0,0.8,0.4,1.6,1.2,2.2
		c0.8,0.7,2.5,1.3,5.3,1.9c7,1.5,11.9,3,15,4.6c3,1.5,5.2,3.4,6.6,5.7c1.4,2.3,2.1,4.8,2.1,7.6c0,3.3-0.9,6.4-2.7,9.1
		c-1.8,2.8-4.4,4.9-7.7,6.3s-7.4,2.2-12.4,2.2c-8.8,0-14.8-1.7-18.2-5.1S987.9-50.8,987.5-56.1z"/>
	<path fill="#FFFFFF" d="M1076.6-60.1l14,4.2c-0.9,3.9-2.4,7.2-4.4,9.8c-2,2.6-4.5,4.6-7.5,5.9s-6.8,2-11.4,2
		c-5.6,0-10.2-0.8-13.7-2.4c-3.6-1.6-6.6-4.5-9.2-8.6c-2.6-4.1-3.9-9.3-3.9-15.7c0-8.5,2.3-15.1,6.8-19.7s11-6.9,19.2-6.9
		c6.5,0,11.6,1.3,15.3,3.9c3.7,2.6,6.5,6.7,8.3,12.1l-14.1,3.1c-0.5-1.6-1-2.7-1.5-3.4c-0.9-1.2-2-2.2-3.3-2.8c-1.3-0.7-2.7-1-4.3-1
		c-3.6,0-6.4,1.5-8.3,4.4c-1.5,2.2-2.2,5.5-2.2,10.1c0,5.7,0.9,9.6,2.6,11.7c1.7,2.1,4.2,3.2,7.3,3.2c3,0,5.3-0.9,6.9-2.6
		C1074.7-54.4,1075.9-56.8,1076.6-60.1z"/>
	<path fill="#FFFFFF" d="M1098.9-90.5h16V-39h-16V-90.5z"/>
	<path fill="#FFFFFF" d="M1126.4-90.5h14.9l19.4,28.5v-28.5h15V-39h-15l-19.3-28.3V-39h-15V-90.5z"/>
	<path fill="#FFFFFF" d="M1212.2-57.7v-10.7h24.6v22c-4.7,3.2-8.9,5.4-12.5,6.6s-7.9,1.7-12.9,1.7c-6.1,0-11.1-1-15-3.1
		c-3.9-2.1-6.8-5.2-9-9.3c-2.1-4.1-3.2-8.9-3.2-14.2c0-5.6,1.2-10.5,3.5-14.7c2.3-4.2,5.7-7.3,10.2-9.5c3.5-1.7,8.2-2.5,14.1-2.5
		c5.7,0,10,0.5,12.8,1.5c2.8,1,5.2,2.6,7,4.8c1.9,2.2,3.3,4.9,4.2,8.2l-15.4,2.7c-0.6-1.9-1.7-3.4-3.2-4.5c-1.5-1-3.4-1.5-5.8-1.5
		c-3.5,0-6.3,1.2-8.3,3.6s-3.1,6.3-3.1,11.5c0,5.6,1,9.6,3.1,12s5,3.6,8.8,3.6c1.8,0,3.5-0.3,5.1-0.8c1.6-0.5,3.5-1.4,5.6-2.6v-4.9
		H1212.2z"/>
</g>
</svg>
