<?xml version="1.0" encoding="utf-8"?>
<!-- Generator: Adobe Illustrator 18.1.1, SVG Export Plug-In . SVG Version: 6.00 Build 0)  -->
<svg version="1.1" id="Layer_1" xmlns="http://www.w3.org/2000/svg" xmlns:xlink="http://www.w3.org/1999/xlink" x="0px" y="0px"
	 viewBox="-420 434.7 955 231.7" enable-background="new -420 434.7 955 231.7" xml:space="preserve">
<rect x="-419" y="435.7" fill="#FFFFFF" stroke="#2F0EB1" stroke-width="2" stroke-miterlimit="10" width="953" height="229.7"/>
<g>
	<path fill="#2F0EB1" d="M-162.6,552.6V534h42.7v38.1c-8.2,5.6-15.4,9.4-21.7,11.4c-6.3,2-13.7,3-22.4,3c-10.6,0-19.3-1.8-26-5.4
		c-6.7-3.6-11.9-9-15.6-16.2c-3.7-7.2-5.5-15.4-5.5-24.7c0-9.8,2-18.3,6-25.5s9.9-12.7,17.7-16.4c6.1-2.9,14.2-4.3,24.5-4.3
		c9.9,0,17.3,0.9,22.2,2.7c4.9,1.8,9,4.6,12.2,8.3c3.2,3.8,5.7,8.5,7.3,14.3l-26.7,4.8c-1.1-3.4-3-6-5.6-7.8c-2.6-1.8-6-2.7-10-2.7
		c-6.1,0-10.9,2.1-14.5,6.3c-3.6,4.2-5.4,10.9-5.4,20c0,9.7,1.8,16.6,5.5,20.8c3.6,4.2,8.7,6.2,15.2,6.2c3.1,0,6-0.4,8.9-1.3
		c2.8-0.9,6-2.4,9.6-4.6v-8.4H-162.6z"/>
	<path fill="#2F0EB1" d="M-102.4,495.5h27.7V585h-27.7V495.5z"/>
	<path fill="#2F0EB1" d="M-61.1,495.5h84v22.1H-5.3V585h-27.6v-67.4h-28.2V495.5z"/>
	<path fill="#2F0EB1" d="M35.6,495.5h27.6v31.3h30.2v-31.3h27.8V585H93.4v-36.2H63.2V585H35.6V495.5z"/>
	<path fill="#2F0EB1" d="M197.8,495.5h27.6v53.3c0,5.3-0.8,10.3-2.5,15c-1.6,4.7-4.2,8.8-7.8,12.3c-3.5,3.5-7.2,6-11.1,7.4
		c-5.4,2-11.8,3-19.3,3c-4.4,0-9.1-0.3-14.3-0.9c-5.1-0.6-9.5-1.8-12.9-3.6c-3.5-1.8-6.6-4.4-9.5-7.7c-2.9-3.3-4.8-6.8-5.9-10.3
		c-1.7-5.7-2.6-10.7-2.6-15.1v-53.3h27.6v54.6c0,4.9,1.4,8.7,4.1,11.4c2.7,2.7,6.5,4.1,11.3,4.1c4.8,0,8.5-1.4,11.2-4.1
		c2.7-2.7,4.1-6.5,4.1-11.5V495.5z"/>
	<path fill="#2F0EB1" d="M243.7,495.5h51.8c8.6,0,15.2,2.1,19.9,6.4s6.9,9.6,6.9,15.9c0,5.3-1.6,9.8-4.9,13.6
		c-2.2,2.5-5.4,4.5-9.6,6c6.4,1.5,11.2,4.2,14.2,8c3,3.8,4.5,8.5,4.5,14.2c0,4.6-1.1,8.8-3.2,12.5c-2.2,3.7-5.1,6.6-8.9,8.8
		c-2.3,1.3-5.8,2.3-10.5,2.9c-6.2,0.8-10.4,1.2-12.4,1.2h-47.7V495.5z M271.6,530.6h12c4.3,0,7.3-0.7,9-2.2s2.5-3.6,2.5-6.4
		c0-2.6-0.8-4.6-2.5-6.1s-4.6-2.2-8.8-2.2h-12.2V530.6z M271.6,565.8h14.1c4.8,0,8.1-0.8,10.1-2.5s2.9-4,2.9-6.8
		c0-2.6-1-4.8-2.9-6.4s-5.3-2.4-10.2-2.4h-14V565.8z"/>
</g>
</svg>
