<?xml version="1.0" encoding="utf-8"?>
<!-- Generator: Adobe Illustrator 18.1.1, SVG Export Plug-In . SVG Version: 6.00 Build 0)  -->
<svg version="1.1" id="Layer_1" xmlns="http://www.w3.org/2000/svg" xmlns:xlink="http://www.w3.org/1999/xlink" x="0px" y="0px"
	 viewBox="340.2 -134.1 686 97" enable-background="new 340.2 -134.1 686 97" xml:space="preserve">
<rect x="340.2" y="-134.1" width="686" height="97"/>
<g>
	<path fill="#FFFFFF" d="M381.2-111.4h15.9v18h17.4v-18h16v51.5h-16v-20.8h-17.4v20.8h-15.9V-111.4z"/>
	<path fill="#FFFFFF" d="M437.4-111.4h48.4v12.7h-16.2v38.8h-15.9v-38.8h-16.2V-111.4z"/>
	<path fill="#FFFFFF" d="M492.9-111.4h20.9l8.1,31.4l8-31.4h20.9v51.5h-13v-39.3l-10,39.3H516l-10-39.3v39.3h-13V-111.4z"/>
	<path fill="#FFFFFF" d="M561-111.4h15.9v38.8h24.9v12.7H561V-111.4z"/>
	<path fill="#FFFFFF" d="M612.5-111.4h34v11.4h-23l-1.2,7.7c1.6-0.8,3.2-1.3,4.7-1.7c1.6-0.4,3.1-0.6,4.6-0.6
		c5.2,0,9.3,1.6,12.6,4.7c3.2,3.1,4.8,7,4.8,11.8c0,3.3-0.8,6.5-2.5,9.6c-1.7,3.1-4,5.4-7,7s-6.9,2.4-11.7,2.4c-3.4,0-6.3-0.3-8.7-1
		s-4.5-1.6-6.2-2.9c-1.7-1.3-3.1-2.7-4.1-4.3s-1.9-3.6-2.6-6l14.5-1.6c0.4,2.3,1.2,4.1,2.5,5.3c1.3,1.2,2.8,1.8,4.6,1.8
		c2,0,3.6-0.8,4.9-2.3s2-3.8,2-6.8c0-3.1-0.7-5.3-2-6.8c-1.3-1.4-3.1-2.1-5.2-2.1c-1.4,0-2.7,0.3-4,1c-1,0.5-2,1.4-3.2,2.7L608-83.7
		L612.5-111.4z"/>
	<path fill="#FFFFFF" d="M681.1-111.4h39.4v11.1h-23.4v9h20v10.4h-20v21.1h-16V-111.4z"/>
	<path fill="#FFFFFF" d="M754-68.4h-18.1l-2.5,8.5h-16.3l19.4-51.5h17.4l19.4,51.5h-16.7L754-68.4z M750.7-79.5L745-98l-5.6,18.5
		H750.7z"/>
	<path fill="#FFFFFF" d="M775.5-76.9l15.2-0.9c0.3,2.5,1,4.3,2,5.6c1.6,2.1,4,3.1,7,3.1c2.3,0,4-0.5,5.3-1.6
		c1.2-1.1,1.8-2.3,1.8-3.7c0-1.3-0.6-2.5-1.8-3.6s-3.9-2.1-8.2-3c-7-1.6-12-3.7-14.9-6.3c-3-2.6-4.5-5.9-4.5-9.9
		c0-2.6,0.8-5.2,2.3-7.5s3.8-4.2,6.9-5.6c3.1-1.3,7.3-2,12.7-2c6.6,0,11.6,1.2,15.1,3.7c3.5,2.4,5.5,6.3,6.2,11.7l-15,0.9
		c-0.4-2.3-1.2-4-2.5-5.1s-3-1.6-5.3-1.6c-1.9,0-3.2,0.4-4.2,1.2c-0.9,0.8-1.4,1.7-1.4,2.9c0,0.8,0.4,1.6,1.2,2.2
		c0.8,0.7,2.5,1.3,5.3,1.9c7,1.5,11.9,3,15,4.6c3,1.5,5.2,3.4,6.6,5.7c1.4,2.3,2.1,4.8,2.1,7.6c0,3.3-0.9,6.4-2.7,9.1
		c-1.8,2.8-4.4,4.9-7.7,6.3s-7.4,2.2-12.4,2.2c-8.8,0-14.8-1.7-18.2-5.1S776-71.7,775.5-76.9z"/>
	<path fill="#FFFFFF" d="M826.7-111.4h48.4v12.7h-16.2v38.8h-15.9v-38.8h-16.2V-111.4z"/>
	<path fill="#FFFFFF" d="M882.3-111.4H925v11h-26.7v8.2H923v10.5h-24.8v10.2h27.5v11.7h-43.5V-111.4z"/>
	<path fill="#FFFFFF" d="M934.5-59.9v-51.5h26.5c4.9,0,8.7,0.4,11.3,1.3s4.7,2.4,6.3,4.7s2.4,5.1,2.4,8.3c0,2.9-0.6,5.3-1.8,7.4
		s-2.9,3.8-5,5c-1.4,0.8-3.2,1.5-5.6,2c1.9,0.6,3.3,1.3,4.1,1.9c0.6,0.4,1.4,1.3,2.5,2.7s1.9,2.5,2.2,3.2l7.7,14.9h-18l-8.5-15.8
		c-1.1-2-2-3.4-2.9-4c-1.1-0.8-2.4-1.2-3.9-1.2h-1.4v20.9H934.5z M950.5-90.5h6.7c0.7,0,2.1-0.2,4.2-0.7c1.1-0.2,1.9-0.8,2.6-1.6
		c0.7-0.9,1-1.9,1-3c0-1.7-0.5-2.9-1.6-3.8c-1.1-0.9-3-1.3-5.9-1.3h-7V-90.5z"/>
</g>
</svg>
