<?xml version="1.0" encoding="utf-8"?>
<!-- Generator: Adobe Illustrator 18.1.1, SVG Export Plug-In . SVG Version: 6.00 Build 0)  -->
<svg version="1.1" id="Layer_1" xmlns="http://www.w3.org/2000/svg" xmlns:xlink="http://www.w3.org/1999/xlink" x="0px" y="0px"
	 viewBox="523.3 -55.4 864.4 53.3" enable-background="new 523.3 -55.4 864.4 53.3" xml:space="preserve">
<g>
	<path fill="#FFFFFF" d="M523.3-54.5h15.9v38.8h24.9V-3h-40.8V-54.5z"/>
	<path fill="#FFFFFF" d="M568.1-28.7c0-8.4,2.3-15,7-19.7c4.7-4.7,11.2-7,19.6-7c8.6,0,15.2,2.3,19.8,6.9s7,11.1,7,19.4
		c0,6-1,11-3,14.8c-2,3.9-5,6.9-8.8,9s-8.6,3.2-14.3,3.2c-5.8,0-10.6-0.9-14.4-2.8c-3.8-1.9-6.9-4.8-9.3-8.8S568.1-22.7,568.1-28.7z
		 M584-28.7c0,5.2,1,8.9,2.9,11.2c1.9,2.3,4.6,3.4,7.9,3.4c3.4,0,6.1-1.1,7.9-3.3c1.9-2.2,2.8-6.2,2.8-12c0-4.9-1-8.4-2.9-10.6
		c-2-2.2-4.6-3.4-8-3.4c-3.2,0-5.8,1.1-7.7,3.4C585-37.7,584-33.9,584-28.7z"/>
	<path fill="#FFFFFF" d="M630.3-3v-51.5h26.5c4.9,0,8.7,0.4,11.3,1.3s4.7,2.4,6.3,4.7s2.4,5.1,2.4,8.3c0,2.9-0.6,5.3-1.8,7.4
		s-2.9,3.8-5,5c-1.4,0.8-3.2,1.5-5.6,2c1.9,0.6,3.3,1.3,4.1,1.9c0.6,0.4,1.4,1.3,2.5,2.7s1.9,2.5,2.2,3.2L680.9-3h-18l-8.5-15.8
		c-1.1-2-2-3.4-2.9-4c-1.1-0.8-2.4-1.2-3.9-1.2h-1.4V-3H630.3z M646.2-33.7h6.7c0.7,0,2.1-0.2,4.2-0.7c1.1-0.2,1.9-0.8,2.6-1.6
		c0.7-0.9,1-1.9,1-3c0-1.7-0.5-2.9-1.6-3.8c-1.1-0.9-3-1.3-5.9-1.3h-7V-33.7z"/>
	<path fill="#FFFFFF" d="M686-54.5h42.7v11H702v8.2h24.8v10.5H702v10.2h27.5V-3H686V-54.5z"/>
	<path fill="#FFFFFF" d="M737.9-54.5h20.9l8.1,31.4l8-31.4h20.9V-3h-13v-39.3L772.7-3h-11.8l-10-39.3V-3h-13V-54.5z"/>
	<path fill="#FFFFFF" d="M830.6-54.5h16V-3h-16V-54.5z"/>
	<path fill="#FFFFFF" d="M858-54.5h26.5c5.8,0,10.1,1.4,13,4.1s4.3,6.6,4.3,11.7c0,5.2-1.6,9.3-4.7,12.2c-3.1,2.9-7.9,4.4-14.3,4.4
		H874V-3h-16V-54.5z M874-32.6h3.9c3.1,0,5.2-0.5,6.5-1.6c1.2-1.1,1.9-2.4,1.9-4.1c0-1.6-0.5-3-1.6-4.1s-3.1-1.7-6.1-1.7H874V-32.6z
		"/>
	<path fill="#FFFFFF" d="M907.2-20.1l15.2-0.9c0.3,2.5,1,4.3,2,5.6c1.6,2.1,4,3.1,7,3.1c2.3,0,4-0.5,5.3-1.6
		c1.2-1.1,1.8-2.3,1.8-3.7c0-1.3-0.6-2.5-1.8-3.6s-3.9-2.1-8.2-3c-7-1.6-12-3.7-14.9-6.3c-3-2.6-4.5-5.9-4.5-9.9
		c0-2.6,0.8-5.2,2.3-7.5s3.8-4.2,6.9-5.6c3.1-1.3,7.3-2,12.7-2c6.6,0,11.6,1.2,15.1,3.7c3.5,2.4,5.5,6.3,6.2,11.7l-15,0.9
		c-0.4-2.3-1.2-4-2.5-5.1s-3-1.6-5.3-1.6c-1.9,0-3.2,0.4-4.2,1.2c-0.9,0.8-1.4,1.7-1.4,2.9c0,0.8,0.4,1.6,1.2,2.2
		c0.8,0.7,2.5,1.3,5.3,1.9c7,1.5,11.9,3,15,4.6c3,1.5,5.2,3.4,6.6,5.7c1.4,2.3,2.1,4.8,2.1,7.6c0,3.3-0.9,6.4-2.7,9.1
		c-1.8,2.8-4.4,4.9-7.7,6.3s-7.4,2.2-12.4,2.2c-8.8,0-14.8-1.7-18.2-5.1S907.7-14.8,907.2-20.1z"/>
	<path fill="#FFFFFF" d="M995.6-54.5h15.9v30.7c0,3-0.5,5.9-1.4,8.6c-0.9,2.7-2.4,5.1-4.5,7.1s-4.2,3.4-6.4,4.3
		c-3.1,1.1-6.8,1.7-11.1,1.7c-2.5,0-5.2-0.2-8.2-0.5c-3-0.4-5.4-1-7.4-2.1c-2-1-3.8-2.5-5.5-4.4s-2.8-3.9-3.4-5.9
		c-1-3.3-1.5-6.2-1.5-8.7v-30.7h15.9v31.4c0,2.8,0.8,5,2.3,6.6c1.6,1.6,3.7,2.4,6.5,2.4c2.7,0,4.9-0.8,6.5-2.3
		c1.6-1.6,2.3-3.8,2.3-6.6V-54.5z"/>
	<path fill="#FFFFFF" d="M1021.8-54.5h20.9l8.1,31.4l8-31.4h20.9V-3h-13v-39.3l-10,39.3h-11.8l-10-39.3V-3h-13V-54.5z"/>
	<path fill="#FFFFFF" d="M1114.2-54.5h23.7c4.7,0,8.4,0.6,11.3,1.9s5.2,3.1,7.1,5.4c1.9,2.4,3.2,5.1,4.1,8.3c0.8,3.1,1.3,6.5,1.3,10
		c0,5.5-0.6,9.8-1.9,12.8c-1.3,3-3,5.6-5.2,7.6c-2.2,2.1-4.6,3.4-7.2,4.1c-3.5,0.9-6.7,1.4-9.5,1.4h-23.7V-54.5z M1130.1-42.9v28.2
		h3.9c3.3,0,5.7-0.4,7.1-1.1s2.5-2,3.3-3.9c0.8-1.8,1.2-4.8,1.2-8.9c0-5.5-0.9-9.2-2.7-11.2c-1.8-2-4.7-3-8.9-3H1130.1z"/>
	<path fill="#FFFFFF" d="M1168-28.7c0-8.4,2.3-15,7-19.7c4.7-4.7,11.2-7,19.6-7c8.6,0,15.2,2.3,19.8,6.9s7,11.1,7,19.4
		c0,6-1,11-3,14.8c-2,3.9-5,6.9-8.8,9s-8.6,3.2-14.3,3.2c-5.8,0-10.6-0.9-14.4-2.8c-3.8-1.9-6.9-4.8-9.3-8.8S1168-22.7,1168-28.7z
		 M1183.9-28.7c0,5.2,1,8.9,2.9,11.2c1.9,2.3,4.6,3.4,7.9,3.4c3.4,0,6.1-1.1,7.9-3.3c1.9-2.2,2.8-6.2,2.8-12c0-4.9-1-8.4-2.9-10.6
		c-2-2.2-4.6-3.4-8-3.4c-3.2,0-5.8,1.1-7.7,3.4C1184.9-37.7,1183.9-33.9,1183.9-28.7z"/>
	<path fill="#FFFFFF" d="M1229.9-54.5h15.9v38.8h24.9V-3h-40.8V-54.5z"/>
	<path fill="#FFFFFF" d="M1274.7-28.7c0-8.4,2.3-15,7-19.7c4.7-4.7,11.2-7,19.6-7c8.6,0,15.2,2.3,19.8,6.9s7,11.1,7,19.4
		c0,6-1,11-3,14.8c-2,3.9-5,6.9-8.8,9s-8.6,3.2-14.3,3.2c-5.8,0-10.6-0.9-14.4-2.8c-3.8-1.9-6.9-4.8-9.3-8.8
		S1274.7-22.7,1274.7-28.7z M1290.7-28.7c0,5.2,1,8.9,2.9,11.2c1.9,2.3,4.6,3.4,7.9,3.4c3.4,0,6.1-1.1,7.9-3.3
		c1.9-2.2,2.8-6.2,2.8-12c0-4.9-1-8.4-2.9-10.6c-2-2.2-4.6-3.4-8-3.4c-3.2,0-5.8,1.1-7.7,3.4C1291.6-37.7,1290.7-33.9,1290.7-28.7z"
		/>
	<path fill="#FFFFFF" d="M1336.9-3v-51.5h26.5c4.9,0,8.7,0.4,11.3,1.3s4.7,2.4,6.3,4.7s2.4,5.1,2.4,8.3c0,2.9-0.6,5.3-1.8,7.4
		s-2.9,3.8-5,5c-1.4,0.8-3.2,1.5-5.6,2c1.9,0.6,3.3,1.3,4.1,1.9c0.6,0.4,1.4,1.3,2.5,2.7s1.9,2.5,2.2,3.2l7.7,14.9h-18l-8.5-15.8
		c-1.1-2-2-3.4-2.9-4c-1.1-0.8-2.4-1.2-3.9-1.2h-1.4V-3H1336.9z M1352.9-33.7h6.7c0.7,0,2.1-0.2,4.2-0.7c1.1-0.2,1.9-0.8,2.6-1.6
		c0.7-0.9,1-1.9,1-3c0-1.7-0.5-2.9-1.6-3.8c-1.1-0.9-3-1.3-5.9-1.3h-7V-33.7z"/>
</g>
</svg>
