<?xml version="1.0" encoding="utf-8"?>
<!-- Generator: Adobe Illustrator 18.1.1, SVG Export Plug-In . SVG Version: 6.00 Build 0)  -->
<svg version="1.1" id="Layer_1" xmlns="http://www.w3.org/2000/svg" xmlns:xlink="http://www.w3.org/1999/xlink" x="0px" y="0px"
	 viewBox="277.5 100.6 379.5 53.3" enable-background="new 277.5 100.6 379.5 53.3" xml:space="preserve">
<g>
	<path fill="#FFFFFF" d="M277.5,135.9l15.2-0.9c0.3,2.5,1,4.3,2,5.6c1.6,2.1,4,3.1,7,3.1c2.3,0,4-0.5,5.3-1.6
		c1.2-1.1,1.8-2.3,1.8-3.7c0-1.3-0.6-2.5-1.8-3.6c-1.2-1.1-3.9-2.1-8.2-3c-7-1.6-12-3.7-14.9-6.3c-3-2.6-4.5-5.9-4.5-9.9
		c0-2.6,0.8-5.2,2.3-7.5c1.5-2.4,3.8-4.2,6.9-5.6c3.1-1.3,7.3-2,12.7-2c6.6,0,11.6,1.2,15.1,3.7c3.5,2.4,5.5,6.3,6.2,11.7l-15,0.9
		c-0.4-2.3-1.2-4-2.5-5.1c-1.3-1.1-3-1.6-5.3-1.6c-1.9,0-3.2,0.4-4.2,1.2c-0.9,0.8-1.4,1.7-1.4,2.9c0,0.8,0.4,1.6,1.2,2.2
		c0.8,0.7,2.5,1.3,5.3,1.9c7,1.5,11.9,3,15,4.6c3,1.5,5.2,3.4,6.6,5.7c1.4,2.3,2.1,4.8,2.1,7.6c0,3.3-0.9,6.4-2.7,9.1
		c-1.8,2.8-4.4,4.9-7.7,6.3c-3.3,1.4-7.4,2.2-12.4,2.2c-8.8,0-14.8-1.7-18.2-5.1S277.9,141.2,277.5,135.9z"/>
	<path fill="#FFFFFF" d="M332.9,101.5h16V153h-16V101.5z"/>
	<path fill="#FFFFFF" d="M356.7,101.5h48.4v12.7h-16.2V153h-15.9v-38.8h-16.2V101.5z"/>
	<path fill="#FFFFFF" d="M468,144.5h-18.1l-2.5,8.5h-16.3l19.4-51.5h17.4l19.4,51.5h-16.7L468,144.5z M464.7,133.3l-5.7-18.5
		l-5.6,18.5H464.7z"/>
	<path fill="#FFFFFF" d="M492.1,101.5h20.9l8.1,31.4l8-31.4h20.9V153h-13v-39.3L527,153h-11.8l-10-39.3V153h-13V101.5z"/>
	<path fill="#FFFFFF" d="M560.2,101.5h42.7v11h-26.7v8.2H601v10.5h-24.8v10.2h27.5V153h-43.5V101.5z"/>
	<path fill="#FFFFFF" d="M608.6,101.5H657v12.7h-16.2V153h-15.9v-38.8h-16.2V101.5z"/>
</g>
</svg>
