<?xml version="1.0" encoding="utf-8"?>
<!-- Generator: Adobe Illustrator 18.1.1, SVG Export Plug-In . SVG Version: 6.00 Build 0)  -->
<svg version="1.1" id="Layer_1" xmlns="http://www.w3.org/2000/svg" xmlns:xlink="http://www.w3.org/1999/xlink" x="0px" y="0px"
	 viewBox="678.5 290.6 740.6 53.3" enable-background="new 678.5 290.6 740.6 53.3" xml:space="preserve">
<path d="M715.3,334.5h-18.1l-2.5,8.5h-16.3l19.4-51.5h17.4l19.4,51.5h-16.7L715.3,334.5z M712,323.4l-5.7-18.5l-5.6,18.5H712z"/>
<path d="M739.9,291.5h23.7c4.7,0,8.4,0.6,11.3,1.9s5.2,3.1,7.1,5.4c1.9,2.4,3.2,5.1,4.1,8.3c0.8,3.1,1.3,6.5,1.3,10
	c0,5.5-0.6,9.8-1.9,12.8c-1.3,3-3,5.6-5.2,7.6c-2.2,2.1-4.6,3.4-7.2,4.1c-3.5,0.9-6.7,1.4-9.5,1.4h-23.7V291.5z M755.8,303.2v28.2
	h3.9c3.3,0,5.7-0.4,7.1-1.1s2.5-2,3.3-3.9c0.8-1.8,1.2-4.8,1.2-8.9c0-5.5-0.9-9.2-2.7-11.2c-1.8-2-4.7-3-8.9-3H755.8z"/>
<path d="M792.9,326L808,325c0.3,2.5,1,4.3,2,5.6c1.6,2.1,4,3.1,7,3.1c2.3,0,4-0.5,5.3-1.6c1.2-1.1,1.8-2.3,1.8-3.7
	c0-1.3-0.6-2.5-1.8-3.6s-3.9-2.1-8.2-3c-7-1.6-12-3.7-14.9-6.3c-3-2.6-4.5-5.9-4.5-9.9c0-2.6,0.8-5.2,2.3-7.5s3.8-4.2,6.9-5.6
	c3.1-1.3,7.3-2,12.7-2c6.6,0,11.6,1.2,15.1,3.7c3.5,2.4,5.5,6.3,6.2,11.7l-15,0.9c-0.4-2.3-1.2-4-2.5-5.1s-3-1.6-5.3-1.6
	c-1.9,0-3.2,0.4-4.2,1.2c-0.9,0.8-1.4,1.7-1.4,2.9c0,0.8,0.4,1.6,1.2,2.2c0.8,0.7,2.5,1.3,5.3,1.9c7,1.5,11.9,3,15,4.6
	c3,1.5,5.2,3.4,6.6,5.7c1.4,2.3,2.1,4.8,2.1,7.6c0,3.3-0.9,6.4-2.7,9.1c-1.8,2.8-4.4,4.9-7.7,6.3s-7.4,2.2-12.4,2.2
	c-8.8,0-14.8-1.7-18.2-5.1S793.3,331.2,792.9,326z"/>
<path d="M871.5,291.5h20.9l8.1,31.4l8-31.4h20.9V343h-13v-39.3l-10,39.3h-11.8l-10-39.3V343h-13V291.5z"/>
<path d="M971.3,334.5h-18.1l-2.5,8.5h-16.3l19.4-51.5h17.4l19.4,51.5h-16.7L971.3,334.5z M968,323.4l-5.7-18.5l-5.6,18.5H968z"/>
<path d="M995.8,291.5h23.7c4.7,0,8.4,0.6,11.3,1.9s5.2,3.1,7.1,5.4c1.9,2.4,3.2,5.1,4.1,8.3c0.8,3.1,1.3,6.5,1.3,10
	c0,5.5-0.6,9.8-1.9,12.8c-1.3,3-3,5.6-5.2,7.6c-2.2,2.1-4.6,3.4-7.2,4.1c-3.5,0.9-6.7,1.4-9.5,1.4h-23.7V291.5z M1011.8,303.2v28.2
	h3.9c3.3,0,5.7-0.4,7.1-1.1s2.5-2,3.3-3.9c0.8-1.8,1.2-4.8,1.2-8.9c0-5.5-0.9-9.2-2.7-11.2c-1.8-2-4.7-3-8.9-3H1011.8z"/>
<path d="M1051.6,291.5h42.7v11h-26.7v8.2h24.8v10.5h-24.8v10.2h27.5V343h-43.5V291.5z"/>
<path d="M1124.9,326l15.2-0.9c0.3,2.5,1,4.3,2,5.6c1.6,2.1,4,3.1,7,3.1c2.3,0,4-0.5,5.3-1.6c1.2-1.1,1.8-2.3,1.8-3.7
	c0-1.3-0.6-2.5-1.8-3.6s-3.9-2.1-8.2-3c-7-1.6-12-3.7-14.9-6.3c-3-2.6-4.5-5.9-4.5-9.9c0-2.6,0.8-5.2,2.3-7.5s3.8-4.2,6.9-5.6
	c3.1-1.3,7.3-2,12.7-2c6.6,0,11.6,1.2,15.1,3.7c3.5,2.4,5.5,6.3,6.2,11.7l-15,0.9c-0.4-2.3-1.2-4-2.5-5.1s-3-1.6-5.3-1.6
	c-1.9,0-3.2,0.4-4.2,1.2c-0.9,0.8-1.4,1.7-1.4,2.9c0,0.8,0.4,1.6,1.2,2.2c0.8,0.7,2.5,1.3,5.3,1.9c7,1.5,11.9,3,15,4.6
	c3,1.5,5.2,3.4,6.6,5.7c1.4,2.3,2.1,4.8,2.1,7.6c0,3.3-0.9,6.4-2.7,9.1c-1.8,2.8-4.4,4.9-7.7,6.3s-7.4,2.2-12.4,2.2
	c-8.8,0-14.8-1.7-18.2-5.1S1125.3,331.2,1124.9,326z"/>
<path d="M1180.3,291.5h16V343h-16V291.5z"/>
<path d="M1207.5,291.5h20.9l8.1,31.4l8-31.4h20.9V343h-13v-39.3l-10,39.3h-11.8l-10-39.3V343h-13V291.5z"/>
<path d="M1275.5,291.5h26.5c5.8,0,10.1,1.4,13,4.1s4.3,6.6,4.3,11.7c0,5.2-1.6,9.3-4.7,12.2c-3.1,2.9-7.9,4.4-14.3,4.4h-8.7V343h-16
	V291.5z M1291.5,313.5h3.9c3.1,0,5.2-0.5,6.5-1.6c1.2-1.1,1.9-2.4,1.9-4.1c0-1.6-0.5-3-1.6-4.1s-3.1-1.7-6.1-1.7h-4.5V313.5z"/>
<path d="M1327.6,291.5h15.9v38.8h24.9V343h-40.8V291.5z"/>
<path d="M1375.6,291.5h42.7v11h-26.7v8.2h24.8v10.5h-24.8v10.2h27.5V343h-43.5V291.5z"/>
</svg>
